o Cube
v 1.000000 3.000000 0.000000
v 1.000000 -1.000000 0.000000
v 1.000000 3.000000 2.000000
v 1.000000 -1.000000 2.000000
v -1.000000 3.000000 0.000000
v -1.000000 -1.000000 0.000000
v -1.000000 3.000000 2.000000
v -1.000000 -1.000000 2.000000
v 1.000000 7.000000 0.000000
v 1.000000 7.000000 2.000000
v -1.000000 7.000000 0.000000
v -1.000000 7.000000 2.000000
v 1.000000 3.000000 4.000000
v -1.000000 3.000000 4.000000
v 1.000000 7.000000 4.000000
v -1.000000 7.000000 4.000000
v 1.000000 7.000000 1.100000
v -1.000000 7.000000 1.100000
v 1.000000 9.000000 1.100000
v -1.000000 9.000000 1.100000
v 1.000000 7.000000 0.000000
v 1.000000 9.000000 0.000000
v -1.000000 7.000000 0.000000
v -1.000000 9.000000 0.000000
v 1.000000 3.000000 -2.000000
v 1.000000 -1.000000 -2.000000
v -1.000000 3.000000 -2.000000
v -1.000000 -1.000000 -2.000000
v 1.000000 7.000000 -2.000000
v -1.000000 7.000000 -2.000000
v 1.000000 3.000000 -4.000000
v -1.000000 3.000000 -4.000000
v 1.000000 7.000000 -4.000000
v -1.000000 7.000000 -4.000000
v 1.000000 7.000000 -1.100000
v -1.000000 7.000000 -1.100000
v 1.000000 9.000000 -1.100000
v -1.000000 9.000000 -1.100000
vn -0.0000 -0.0000 1.0000
vn -1.0000 -0.0000 -0.0000
vn -0.0000 -1.0000 -0.0000
vn 1.0000 -0.0000 -0.0000
vn -0.0000 1.0000 -0.0000
vn -0.0000 -0.0000 -1.0000
vt 0.375000 0.750000
vt 0.625000 0.750000
vt 0.625000 1.000000
vt 0.375000 1.000000
vt 0.375000 0.000000
vt 0.625000 0.000000
vt 0.625000 0.250000
vt 0.375000 0.250000
vt 0.125000 0.500000
vt 0.375000 0.500000
vt 0.125000 0.750000
vt 0.625000 0.500000
vt 0.875000 0.500000
vt 0.875000 0.750000
s 0
f 4/1/1 3/2/1 7/3/1 8/4/1
f 8/5/2 7/6/2 5/7/2 6/8/2
f 6/9/3 2/10/3 4/1/3 8/11/3
f 2/10/4 1/12/4 3/2/4 4/1/4
f 3/2/4 1/12/4 9/12/4 10/2/4
f 9/12/5 11/13/5 12/14/5 10/2/5
f 3/2/4 10/2/4 15/2/4 13/2/4
f 5/7/2 7/6/2 12/6/2 11/7/2
f 14/3/1 13/2/1 15/2/1 16/3/1
f 7/3/3 3/2/3 13/2/3 14/3/3
f 10/2/5 12/14/5 16/14/5 15/2/5
f 12/6/2 7/6/2 14/6/2 16/6/2
f 9/12/3 17/12/3 18/13/3 11/13/3
f 17/12/1 19/12/1 20/13/1 18/13/1
f 17/12/4 21/12/4 22/12/4 19/12/4
f 20/13/2 24/13/2 23/13/2 18/13/2
f 20/13/5 19/12/5 22/12/5 24/13/5
f 26/1/6 28/4/6 27/3/6 25/2/6
f 28/5/2 6/8/2 5/7/2 27/6/2
f 6/9/3 28/11/3 26/1/3 2/10/3
f 2/10/4 26/1/4 25/2/4 1/12/4
f 25/2/4 29/2/4 9/12/4 1/12/4
f 9/12/5 29/2/5 30/14/5 11/13/5
f 25/2/4 31/2/4 33/2/4 29/2/4
f 5/7/2 11/7/2 30/6/2 27/6/2
f 32/3/6 34/3/6 33/2/6 31/2/6
f 27/3/3 32/3/3 31/2/3 25/2/3
f 29/2/5 33/2/5 34/14/5 30/14/5
f 30/6/2 34/6/2 32/6/2 27/6/2
f 9/12/3 11/13/3 36/13/3 35/12/3
f 35/12/6 36/13/6 38/13/6 37/12/6
f 35/12/4 37/12/4 22/12/4 21/12/4
f 38/13/2 36/13/2 23/13/2 24/13/2
f 38/13/5 24/13/5 22/12/5 37/12/5
